<?xml version="1.0" standalone="no"?>
<!DOCTYPE svg PUBLIC "-//W3C//DTD SVG 20010904//EN"
 "http://www.w3.org/TR/2001/REC-SVG-20010904/DTD/svg10.dtd">
<svg version="1.0" xmlns="http://www.w3.org/2000/svg"
 width="413.000000pt" height="413.000000pt" viewBox="0 0 413.000000 413.000000"
 preserveAspectRatio="xMidYMid meet">
<metadata>
Created by potrace 1.16, written by Peter Selinger 2001-2019
</metadata>
<g transform="translate(0.000000,413.000000) scale(0.100000,-0.100000)"
fill="#000000" stroke="none">
<path d="M2106 3635 c-9 -13 -29 -31 -44 -38 -22 -12 -117 -26 -195 -30 -18
-1 -18 -2 0 -15 10 -7 29 -22 43 -33 l25 -19 -28 -23 c-39 -33 -113 -57 -174
-57 -43 0 -54 4 -64 21 -6 12 -9 32 -6 45 6 31 -3 30 -39 -4 -19 -18 -54 -35
-99 -46 -39 -11 -72 -22 -75 -25 -3 -3 -27 -16 -54 -29 -73 -34 -145 -83 -223
-150 -77 -66 -125 -131 -151 -204 -10 -30 -25 -51 -40 -58 -22 -10 -24 -15
-19 -56 3 -32 14 -57 36 -82 18 -20 40 -50 49 -66 83 -141 166 -233 229 -255
21 -8 49 -18 63 -24 14 -6 33 -9 44 -8 27 4 68 -8 62 -18 -12 -19 105 -29 133
-12 11 7 10 11 -5 19 -10 6 -17 12 -14 15 10 8 105 36 109 31 2 -2 -1 -15 -7
-29 -11 -24 -11 -24 65 10 41 19 83 36 92 36 9 1 1 4 -18 8 -48 8 -48 22 2 51
60 36 61 36 54 1 l-6 -31 57 32 c83 46 158 99 232 162 36 31 71 56 78 56 6 0
12 6 12 13 0 6 14 27 31 46 35 38 42 34 60 -34 6 -22 14 -53 19 -70 18 -59 51
-272 57 -371 l6 -102 -79 1 c-72 0 -145 -16 -131 -29 3 -3 14 -1 25 5 12 6 53
11 92 11 56 0 72 -3 77 -16 6 -16 -13 -189 -23 -205 -2 -4 -19 -3 -37 2 -54
16 -186 12 -199 -6 -15 -20 -7 -26 14 -11 30 21 148 21 187 1 28 -14 29 -16
19 -55 -8 -29 -16 -40 -29 -40 -24 0 -25 -16 -1 -22 26 -7 28 -80 2 -96 -20
-12 -33 -3 -35 28 -1 8 -2 25 -3 38 l-2 22 -38 -19 c-22 -11 -60 -36 -86 -56
-26 -19 -51 -33 -56 -30 -6 4 -10 2 -10 -4 0 -10 -40 -17 -149 -25 l-64 -4 44
46 c24 26 4 9 -44 -38 -83 -81 -118 -121 -59 -69 48 42 72 51 166 56 l91 6 1
-59 c0 -60 26 -126 58 -153 22 -18 20 -38 -4 -46 -11 -3 -43 -24 -71 -45 l-51
-38 -47 14 c-93 28 -202 37 -269 21 -34 -8 -62 -11 -62 -7 0 4 22 39 49 77
l50 71 -47 -18 c-26 -10 -76 -21 -112 -25 -107 -11 -233 -33 -265 -45 -16 -6
-45 -23 -63 -37 -18 -14 -35 -23 -36 -22 -4 6 -24 91 -31 130 -8 53 -25 64
-78 50 -23 -6 -100 -22 -172 -35 -71 -14 -211 -42 -310 -61 -99 -20 -199 -40
-222 -44 -80 -14 -116 -68 -103 -152 13 -83 28 -167 45 -244 9 -38 22 -106 31
-150 28 -150 27 -149 58 -165 22 -12 30 -12 33 -2 7 19 23 14 23 -7 0 -17 32
-43 92 -76 10 -5 18 -13 18 -17 0 -13 226 -148 249 -148 21 0 377 96 393 106
5 3 15 1 22 -5 8 -6 38 -10 68 -9 43 2 60 -2 81 -19 24 -19 38 -20 164 -19
120 2 144 5 185 25 74 36 76 45 13 65 -62 19 -88 43 -34 30 77 -17 402 6 427
31 8 8 -11 6 -95 -10 -160 -31 -393 -13 -430 32 -21 26 -68 129 -88 195 l-18
57 -28 -15 c-26 -13 -34 -12 -106 16 -43 17 -87 30 -99 30 -18 0 -22 7 -28 58
-3 31 -9 71 -12 88 -5 28 -3 32 24 37 17 3 46 20 65 37 41 36 62 37 128 9 44
-19 48 -24 43 -48 -3 -14 9 10 27 54 49 121 71 152 121 165 60 17 164 14 252
-5 42 -9 76 -19 76 -20 0 -2 -10 -20 -21 -40 -19 -31 -21 -46 -16 -108 8 -94
27 -121 91 -125 l46 -3 0 -43 c0 -43 -1 -44 -42 -54 -146 -36 -424 -41 -500
-9 -30 13 -38 13 -38 3 0 -9 26 -17 76 -25 128 -21 318 -15 446 14 61 14 68
10 68 -38 0 -30 51 -135 83 -173 15 -18 27 -39 27 -48 0 -9 6 -16 13 -16 18 0
47 -33 47 -53 0 -10 5 -14 15 -11 8 4 15 1 15 -4 0 -6 -10 -12 -22 -14 -25 -3
-41 -45 -25 -66 7 -8 6 -26 -3 -54 -13 -37 -12 -42 5 -54 10 -8 34 -14 51 -14
39 0 80 -16 111 -43 23 -21 56 -20 178 3 33 6 89 11 125 11 l65 0 43 49 c23
27 42 58 42 68 0 18 9 21 98 27 265 17 345 26 442 50 140 34 201 60 237 98 40
42 53 85 53 168 0 109 -25 160 -120 250 -55 52 -80 82 -80 98 0 23 2 24 58 18
31 -3 74 -9 96 -13 34 -6 38 -5 35 12 -3 15 -36 30 -144 66 -171 58 -223 62
-266 19 -38 -39 -37 -70 5 -146 19 -34 31 -67 28 -72 -12 -17 -49 -33 -79 -33
-25 0 -31 6 -43 43 -14 39 -18 42 -50 41 -20 0 -54 -13 -78 -27 -23 -15 -43
-27 -46 -27 -2 0 -21 52 -41 115 l-37 114 25 31 c35 41 43 89 22 129 -17 35
-126 111 -157 111 -18 0 -61 57 -53 71 3 4 43 12 90 19 72 10 96 10 164 -4 44
-9 92 -14 107 -12 37 7 88 -20 79 -42 -3 -9 -3 -13 1 -10 3 4 13 1 21 -7 16
-17 61 -30 70 -22 3 3 1 20 -5 36 -13 37 0 91 28 116 21 19 27 45 10 45 -5 0
-28 18 -50 40 -35 35 -40 46 -40 86 0 41 5 51 40 87 50 49 47 71 -7 62 -104
-17 -175 -39 -298 -90 -39 -17 -40 -17 -23 2 16 18 16 20 -2 48 -11 17 -20 33
-20 38 0 4 18 27 40 51 22 24 40 47 40 51 0 13 -92 -6 -173 -36 -91 -33 -146
-63 -206 -114 -24 -19 -47 -35 -51 -35 -14 0 -38 81 -44 145 l-6 60 57 25 c70
30 133 84 133 114 0 52 -75 133 -198 216 -19 13 -23 25 -25 84 l-2 69 49 13
c103 27 176 94 162 150 -9 35 -75 104 -165 171 -42 31 -80 60 -85 65 -5 4 14
32 42 62 72 79 136 221 149 327 8 68 -11 69 -47 1 -29 -56 -124 -161 -134
-151 -3 3 6 32 19 66 14 34 22 69 19 77 -16 42 -133 70 -268 64 l-96 -4 6 33
c5 28 3 33 -14 33 -11 0 -27 -11 -36 -25z m69 -220 c28 -13 64 -36 80 -50 l30
-26 -40 -35 c-75 -67 -247 -96 -282 -48 -31 42 -4 132 49 164 44 27 102 25
163 -5z m25 -1656 c3 -13 9 -19 13 -13 3 6 30 10 59 9 39 -1 56 2 65 14 17 24
163 23 163 -1 0 -5 -9 -12 -20 -15 -23 -6 -27 -23 -6 -23 8 0 16 -13 18 -30 4
-25 1 -30 -21 -34 -29 -6 -50 -4 -68 7 -6 4 -14 3 -18 -3 -4 -6 -13 -5 -25 2
-19 12 -19 13 2 35 12 13 28 21 34 19 7 -3 18 2 25 10 10 13 10 17 -2 25 -20
13 -29 11 -29 -5 0 -8 -7 -16 -15 -20 -8 -3 -15 -1 -15 4 0 6 5 10 12 10 6 0
9 2 6 5 -8 8 -36 -5 -42 -20 -3 -9 0 -12 10 -8 22 8 17 -14 -8 -31 -14 -10
-17 -16 -8 -16 11 0 11 -3 2 -12 -20 -20 -43 8 -31 38 11 30 11 34 2 34 -11 0
-33 -51 -27 -61 3 -5 -1 -9 -8 -9 -7 0 -41 -2 -75 -4 -71 -4 -89 7 -79 50 8
31 52 77 69 71 6 -2 14 -14 17 -28z m-1580 -853 c-25 -7 -43 -16 -41 -21 8
-19 65 -55 86 -55 29 0 85 20 85 30 0 5 -17 19 -37 32 -34 21 -36 23 -16 26
14 2 38 -9 63 -29 40 -32 40 -32 94 -20 30 7 56 17 58 22 5 15 78 0 78 -16 0
-14 43 -46 75 -57 17 -5 17 -6 3 -7 -26 -1 -22 -16 13 -45 36 -30 35 -30 118
-11 118 28 72 10 -112 -44 -248 -73 -230 -72 -318 -15 -117 75 -143 88 -147
74 -2 -6 -22 7 -44 31 -29 31 -47 42 -69 42 -20 0 -25 3 -17 9 10 6 9 12 -6
23 -11 8 -18 17 -15 19 8 9 104 24 149 24 l45 0 -45 -12z"/>
<path d="M887 760 c-38 -10 -71 -21 -75 -25 -4 -4 6 -18 22 -32 26 -22 36 -25
81 -19 59 7 145 34 145 46 0 17 -53 50 -79 49 -14 0 -57 -8 -94 -19z"/>
</g>
</svg>
